<svg width="378" height="378" viewBox="0 0 378 378" fill="none" xmlns="http://www.w3.org/2000/svg">
<path d="M378 378H0V0H378V378Z" fill="url(#paint0_linear_1_33)"/>
<path d="M378 378H0V0H378V378ZM197.262 167.923C189.081 166.824 185.829 168.971 182.061 177.938C180.337 182.047 175.695 192.801 171.743 201.84C149.81 252.017 145.789 278.087 155.854 305.061C164.275 327.638 185.415 344.483 209.979 348.181C217.735 349.341 220.366 349.372 221.113 348.294C221.468 347.78 218.032 345.13 213.472 342.419C200.788 334.89 190.482 325.655 185.806 317.644C178.315 304.845 176.431 295.127 179.786 286.643C182.084 280.798 185.071 277.644 196.135 269.304C205.165 262.484 212.472 255.767 210.83 255.767C210.405 255.767 205.315 257.851 199.524 260.398C187.197 265.822 182.98 266.747 179.9 264.703C177.878 263.358 177.821 262.864 179.188 258.468C181.245 251.894 187.472 245.967 200.742 237.924C221.698 225.228 222.618 223.534 204.684 230.734C185.749 238.325 181.486 236.999 187.794 225.484C191.321 219.024 194.986 216.343 208.348 210.416C213.817 207.992 218.298 205.609 218.298 205.137C218.298 204.664 217.137 204.643 215.713 205.105C214.288 205.568 209.772 205.948 205.682 205.948C198.824 205.948 198.122 205.743 196.812 203.309C195.595 201.049 195.974 198.511 199.375 185.847C201.569 177.692 203.131 170.481 202.855 169.812C202.568 169.145 200.053 168.293 197.262 167.923ZM250.135 312.897C244.551 308.902 233.843 307.968 227.57 310.926C215.449 316.627 212.083 331.685 220.918 340.683C222.929 342.727 226.134 345.008 228.041 345.758C232.602 347.535 241.576 347.544 246.194 345.768C253.984 342.789 258.511 336.204 258.511 327.854C258.511 321.834 255.753 316.903 250.135 312.897ZM108.954 50.1357C111.723 41.272 110.528 39.4031 105.829 45.2061C96.2011 57.0904 91.4678 70.8235 91.5137 86.7959C91.5481 99.6149 93.7987 107.155 100.635 117.231C105.414 124.288 117.835 134.95 127.233 140.045C135.678 144.636 153.659 151.838 165.562 155.392C200.604 165.869 217.092 172.391 226.237 179.396C232.499 184.193 237.83 191.538 237.83 195.369C237.829 199.416 231.211 204.993 220.01 210.386C214.013 213.272 212.025 214.607 214.276 214.248C232.59 211.3 234.13 211.218 237.163 212.995C239.587 214.413 240.128 215.532 240.128 219.127C240.128 226.872 233.165 233.035 212.174 243.841C209.131 245.411 206.869 246.921 207.164 247.179C207.451 247.446 210.945 246.48 214.92 245.032C218.895 243.594 223.858 242.413 225.961 242.413C229.143 242.413 229.787 242.793 229.787 244.683C229.787 249.254 210.071 276.248 192.803 295.333C185.312 303.622 183.75 306.098 186.024 306.098C186.588 306.097 192.149 301.999 198.376 296.997C218.677 280.665 238.22 258.96 247.642 242.279C254.248 230.59 257.108 222.722 258.326 212.954C260.773 193.253 254.719 178.286 238.91 164.984C226.341 154.415 212.575 148.026 180.957 138.104C146.271 127.205 143.388 125.901 145.146 121.812C145.789 120.303 150.707 117.97 163.724 113.009C169.548 110.78 165.159 110.76 154.142 112.958C140.78 115.608 130.555 115.68 125.212 113.144C119.651 110.494 112.159 101.978 109.229 94.9629C104.519 83.7051 104.404 64.7524 108.954 50.1357ZM296.104 274.163C287.889 263.265 269.369 263.604 262.291 274.789C257.155 282.883 259.476 292.601 267.84 298.147C271.057 300.274 277.491 301.969 280.341 301.435C281.283 301.26 283.615 300.829 285.511 300.479C296.724 298.384 302.871 283.141 296.104 274.163ZM302.457 222.846C296.483 216.868 284.947 217.976 280.938 224.92C277.56 230.764 279.95 237.893 286.223 240.656C291.014 242.762 293.117 242.813 298.114 240.954C305.789 238.088 308.098 228.485 302.457 222.846ZM156.979 170.665C151.614 165.385 143.41 163.598 134.896 165.857C128.451 167.573 123.912 171.24 121.27 176.899C113.583 193.355 133.104 209.112 151.372 201.203C164.183 195.656 166.963 180.485 156.979 170.665ZM98.2119 145.088C93.6506 141.544 85.8599 141.863 81.4824 145.776C78.7365 148.242 78.1279 149.649 78.1279 153.562C78.1279 162.53 87.7666 167.254 96.5674 162.611C103.151 159.14 104.037 149.618 98.2119 145.088ZM173.099 79.6367C161.656 74.7373 159.311 75.9605 168.284 82.1543C178.268 89.0363 178.039 93.4326 167.469 97.9521C164.148 99.3697 157.806 102.019 153.383 103.837C142.066 108.48 146.604 108.788 160.908 104.341C167.353 102.338 175.097 100.407 178.107 100.047C183.151 99.4511 183.761 99.6255 185.564 102.08C189.448 107.37 185.576 112.712 173.616 118.577C169.128 120.773 165.648 122.754 165.883 122.973C166.124 123.188 169.341 122.418 173.029 121.258C186.208 117.118 191.229 118.834 192.86 128.048C193.343 130.821 194.664 134.457 195.767 136.142C197.973 139.449 205.705 144.923 207.096 144.163C207.567 143.894 207.946 138.976 207.946 133.215C207.912 113.996 203.109 102.501 190.252 90.8633C184.128 85.3169 179.877 82.5332 173.099 79.6367ZM243.322 141.205C259.062 135.576 250.112 114.346 234.004 119.091C228.305 120.775 224.697 126.106 225.524 131.622C226.237 136.326 228.834 139.377 233.809 141.339C238.197 143.064 238.118 143.075 243.322 141.205ZM74.1064 106.056C65.5125 99.4408 54.5292 110.482 62.5596 117.662C66.1098 120.826 70.2121 120.868 74.2334 117.776C78.5762 114.428 78.5298 109.456 74.1064 106.056ZM151.866 50.3311C148.052 50.3311 146.696 50.948 143.617 54.0908C140.481 57.275 140.021 58.395 140.584 61.5381C140.998 63.8902 142.56 66.2947 144.893 68.1641C148.029 70.6904 149.201 71.029 153.256 70.5361C156.392 70.1664 158.84 69.0772 160.563 67.29C166.859 60.747 161.517 50.3312 151.866 50.3311Z" fill="black"/>
<defs>
<linearGradient id="paint0_linear_1_33" x1="189" y1="0" x2="189" y2="378" gradientUnits="userSpaceOnUse">
<stop offset="0.0240385" stop-color="#084E53"/>
<stop offset="1" stop-color="#11B965"/>
</linearGradient>
</defs>
</svg>
